# xmcd
#
# Track frame offsets: 
#        150
#        15689
#        32585
#        50787
#        67429
#        85579
#        101760
#        118979
#        139520
#        155880
#        173399
#        192186
#        210242
#        225771
#        241765
#        261001
#        289280
#
# Disc length: 4440 seconds
#
# Revision: 1
# Processed by: cddbd v1.5.2PL0 Copyright (c) Steve Scherf et al.
# Submitted via: ExactAudioCopy v1.0b3
#
DISCID=e7115611
DTITLE=Blue - One Love
DYEAR=2002
DGENRE=Pop
TTITLE0=One Love
TTITLE1=Riders
TTITLE2=Flexin'
TTITLE3=Sorry Seems To Be The Hardest Word (feat. Elton John)
TTITLE4=She Told Me
TTITLE5=Right Here Waiting
TTITLE6=U Make Me Wanna
TTITLE7=Ain't Got You
TTITLE8=Supersexual
TTITLE9=Don't Treat Me Like A Fool
TTITLE10=Get Down
TTITLE11=Privacy
TTITLE12=Without You
TTITLE13=Invitation
TTITLE14=Like A Friend
TTITLE15=All Rise
TTITLE16=Data
EXTD=Hi.
EXTT0=
EXTT1=
EXTT2=
EXTT3=
EXTT4=
EXTT5=
EXTT6=
EXTT7=
EXTT8=
EXTT9=
EXTT10=
EXTT11=
EXTT12=
EXTT13=
EXTT14=
EXTT15=
EXTT16=
PLAYORDER=
